<svg id="Layer_1" height="30" viewBox="0 0 24 24" width="30" xmlns="http://www.w3.org/2000/svg" data-name="Layer 1"><path fill="#fff" d="m12.95 19.86-7.12-5.18 1.13-1.54 6 4.36 6-4.36 1.12 1.54z"/><path fill="#fff" d="m19.64 23.45h-15.28a3.82 3.82 0 0 1 -3.81-3.81v-2.87h11.1v1.91h-9.2v1a1.92 1.92 0 0 0 1.91 1.91h15.28a1.92 1.92 0 0 0 1.91-1.91v-1h-7.28v-1.91h9.18v2.87a3.82 3.82 0 0 1 -3.81 3.81z"/><path fill="#fff" d="m19.64 18.68h-5.37v-1.91h5.37a1 1 0 0 0 0-1.91h-15.28a1 1 0 0 0 0 1.91h7.29v1.91h-7.29a2.87 2.87 0 0 1 0-5.73h15.28a2.87 2.87 0 0 1 0 5.73z"/><path fill="#fff" d="m19.64 14.86h-15.28a2.86 2.86 0 1 1 0-5.72h15.28a2.86 2.86 0 0 1 0 5.72zm-15.28-3.81a.95.95 0 0 0 0 1.9h15.28a.95.95 0 0 0 0-1.9z"/><path fill="#fff" d="m19.64 14.86h-15.28a2.86 2.86 0 1 1 0-5.72h15.28a2.86 2.86 0 0 1 0 5.72zm-15.28-3.81a.95.95 0 0 0 0 1.9h15.28a.95.95 0 0 0 0-1.9z"/><path fill="#fff" d="m23.45 11.05h-22.9v-1.91a8.6 8.6 0 0 1 8.59-8.59h5.72a8.6 8.6 0 0 1 8.59 8.59zm-21-1.91h19.1a6.7 6.7 0 0 0 -6.69-6.69h-5.72a6.7 6.7 0 0 0 -6.69 6.69z"/><path fill="#fff" d="m5.32 6.27h1.91v1.91h-1.91z"/><path fill="#fff" d="m11.05 6.27h1.91v1.91h-1.91z"/><path fill="#fff" d="m16.77 6.27h1.91v1.91h-1.91z"/><path fill="#fff" d="m8.18 3.41h1.91v1.91h-1.91z"/><path fill="#fff" d="m13.91 3.41h1.91v1.91h-1.91z"/></svg>